HIERARCHY
ROOT Hips
{
	OFFSET -0.000008 104.274872 1.554316
	CHANNELS 6 Xposition Yposition Zposition Xrotation Yrotation Zrotation
	JOINT Spine
	{
		OFFSET -0.000005 10.181595 0.131521
		CHANNELS 6 Xposition Yposition Zposition Xrotation Yrotation Zrotation
		JOINT Spine1
		{
			OFFSET -0.000000 9.893959 -1.470711
			CHANNELS 6 Xposition Yposition Zposition Xrotation Yrotation Zrotation
			JOINT Spine2
			{
				OFFSET -0.000000 9.220757 -1.370642
				CHANNELS 3 Xrotation Yrotation Zrotation
				JOINT Neck
				{
					OFFSET 0.000001 16.740417 -2.049038
					CHANNELS 6 Xposition Yposition Zposition Xrotation Yrotation Zrotation
					JOINT Head
					{
						OFFSET 0.000000 9.617874 1.685009
						CHANNELS 6 Xposition Yposition Zposition Xrotation Yrotation Zrotation
						JOINT HeadTop_End
						{
							OFFSET 0.000002 22.037384 7.501098
							CHANNELS 6 Xposition Yposition Zposition Xrotation Yrotation Zrotation
							End Site
							{
								OFFSET 0.000002 23.106583 -2.828261
							}
						}
					}
				}
				JOINT RightShoulder
				{
					OFFSET -4.569969 11.014923 -2.160886
					CHANNELS 6 Xposition Yposition Zposition Xrotation Yrotation Zrotation
					JOINT RightArm
					{
						OFFSET -10.592850 -0.524811 -2.232100
						CHANNELS 3 Xrotation Yrotation Zrotation
						JOINT RightForeArm
						{
							OFFSET -27.841520 0.000015 -0.000005
							CHANNELS 6 Xposition Yposition Zposition Xrotation Yrotation Zrotation
							JOINT RightHand
							{
								OFFSET -28.328838 -0.000015 0.000018
								CHANNELS 6 Xposition Yposition Zposition Xrotation Yrotation Zrotation
								JOINT RightHandThumb1
								{
									OFFSET -2.464806 -1.573990 2.681853
									CHANNELS 6 Xposition Yposition Zposition Xrotation Yrotation Zrotation
									JOINT RightHandThumb2
									{
										OFFSET -3.215195 -1.872772 1.924282
										CHANNELS 6 Xposition Yposition Zposition Xrotation Yrotation Zrotation
										JOINT RightHandThumb3
										{
											OFFSET -2.654823 -1.527985 1.512609
											CHANNELS 6 Xposition Yposition Zposition Xrotation Yrotation Zrotation
											JOINT RightHandThumb4
											{
												OFFSET -2.018822 -1.152008 1.108055
												CHANNELS 3 Xrotation Yrotation Zrotation
												End Site
												{
													OFFSET -1.888100 -1.145340 1.324313
												}
											}
										}
									}
								}
								JOINT RightHandIndex1
								{
									OFFSET -9.108284 -0.517868 2.259835
									CHANNELS 6 Xposition Yposition Zposition Xrotation Yrotation Zrotation
									JOINT RightHandIndex2
									{
										OFFSET -3.699997 0.000000 0.001215
										CHANNELS 3 Xrotation Yrotation Zrotation
										JOINT RightHandIndex3
										{
											OFFSET -2.850014 0.000031 -0.000522
											CHANNELS 3 Xrotation Yrotation Zrotation
											JOINT RightHandIndex4
											{
												OFFSET -2.772179 -0.000015 -0.000019
												CHANNELS 3 Xrotation Yrotation Zrotation
												End Site
												{
													OFFSET -2.772186 0.000000 -0.000502
												}
											}
										}
									}
								}
								JOINT RightHandMiddle1
								{
									OFFSET -9.532509 -0.000046 -0.000025
									CHANNELS 6 Xposition Yposition Zposition Xrotation Yrotation Zrotation
									JOINT RightHandMiddle2
									{
										OFFSET -3.700012 0.000000 0.003713
										CHANNELS 3 Xrotation Yrotation Zrotation
										JOINT RightHandMiddle3
										{
											OFFSET -2.949989 0.000015 -0.002054
											CHANNELS 3 Xrotation Yrotation Zrotation
											JOINT RightHandMiddle4
											{
												OFFSET -2.946625 0.000000 -0.000154
												CHANNELS 3 Xrotation Yrotation Zrotation
												End Site
												{
													OFFSET -2.946632 0.000015 -0.001136
												}
											}
										}
									}
								}
								JOINT RightHandRing1
								{
									OFFSET -9.103600 -0.043076 -1.865135
									CHANNELS 6 Xposition Yposition Zposition Xrotation Yrotation Zrotation
									JOINT RightHandRing2
									{
										OFFSET -3.379272 0.000000 -0.001054
										CHANNELS 3 Xrotation Yrotation Zrotation
										JOINT RightHandRing3
										{
											OFFSET -2.889694 0.000015 0.000379
											CHANNELS 3 Xrotation Yrotation Zrotation
											JOINT RightHandRing4
											{
												OFFSET -2.638809 0.000000 0.000941
												CHANNELS 3 Xrotation Yrotation Zrotation
												End Site
												{
													OFFSET -2.638802 0.000000 0.005160
												}
											}
										}
									}
								}
								JOINT RightHandPinky1
								{
									OFFSET -8.076675 -0.486710 -3.806280
									CHANNELS 6 Xposition Yposition Zposition Xrotation Yrotation Zrotation
									JOINT RightHandPinky2
									{
										OFFSET -3.600006 -0.000031 -0.003747
										CHANNELS 3 Xrotation Yrotation Zrotation
										JOINT RightHandPinky3
										{
											OFFSET -2.099976 -0.000015 -0.005740
											CHANNELS 3 Xrotation Yrotation Zrotation
											JOINT RightHandPinky4
											{
												OFFSET -2.115776 -0.000031 -0.003680
												CHANNELS 3 Xrotation Yrotation Zrotation
												End Site
												{
													OFFSET -2.115776 -0.000015 -0.003507
												}
											}
										}
									}
								}
							}
						}
					}
				}
				JOINT LeftShoulder
				{
					OFFSET 4.570447 11.014725 -2.160858
					CHANNELS 6 Xposition Yposition Zposition Xrotation Yrotation Zrotation
					JOINT LeftArm
					{
						OFFSET 10.592371 -0.524597 -2.232121
						CHANNELS 3 Xrotation Yrotation Zrotation
						JOINT LeftForeArm
						{
							OFFSET 27.841520 -0.000015 0.000023
							CHANNELS 3 Xrotation Yrotation Zrotation
							JOINT LeftHand
							{
								OFFSET 28.328835 -0.000046 0.000017
								CHANNELS 6 Xposition Yposition Zposition Xrotation Yrotation Zrotation
								JOINT LeftHandThumb1
								{
									OFFSET 2.466141 -1.576187 2.681734
									CHANNELS 6 Xposition Yposition Zposition Xrotation Yrotation Zrotation
									JOINT LeftHandThumb2
									{
										OFFSET 3.217804 -1.872055 1.916487
										CHANNELS 6 Xposition Yposition Zposition Xrotation Yrotation Zrotation
										JOINT LeftHandThumb3
										{
											OFFSET 2.656021 -1.528809 1.514508
											CHANNELS 6 Xposition Yposition Zposition Xrotation Yrotation Zrotation
											JOINT LeftHandThumb4
											{
												OFFSET 2.020889 -1.154068 1.115132
												CHANNELS 6 Xposition Yposition Zposition Xrotation Yrotation Zrotation
												End Site
												{
													OFFSET 1.908852 -1.150833 1.300490
												}
											}
										}
									}
								}
								JOINT LeftHandIndex1
								{
									OFFSET 9.109306 -0.518036 2.259871
									CHANNELS 6 Xposition Yposition Zposition Xrotation Yrotation Zrotation
									JOINT LeftHandIndex2
									{
										OFFSET 3.699997 -0.000015 -0.000323
										CHANNELS 3 Xrotation Yrotation Zrotation
										JOINT LeftHandIndex3
										{
											OFFSET 2.850006 -0.000015 0.000350
											CHANNELS 3 Xrotation Yrotation Zrotation
											JOINT LeftHandIndex4
											{
												OFFSET 2.774857 -0.000015 -0.000027
												CHANNELS 3 Xrotation Yrotation Zrotation
												End Site
												{
													OFFSET 2.774864 0.000000 -0.000099
												}
											}
										}
									}
								}
								JOINT LeftHandMiddle1
								{
									OFFSET 9.533401 0.000031 0.000044
									CHANNELS 6 Xposition Yposition Zposition Xrotation Yrotation Zrotation
									JOINT LeftHandMiddle2
									{
										OFFSET 3.699997 0.000000 -0.000231
										CHANNELS 3 Xrotation Yrotation Zrotation
										JOINT LeftHandMiddle3
										{
											OFFSET 2.949997 -0.000015 -0.000059
											CHANNELS 3 Xrotation Yrotation Zrotation
											JOINT LeftHandMiddle4
											{
												OFFSET 2.952866 0.000000 0.000062
												CHANNELS 3 Xrotation Yrotation Zrotation
												End Site
												{
													OFFSET 2.952858 0.000000 0.000228
												}
											}
										}
									}
								}
								JOINT LeftHandRing1
								{
									OFFSET 9.104530 -0.043030 -1.865075
									CHANNELS 6 Xposition Yposition Zposition Xrotation Yrotation Zrotation
									JOINT LeftHandRing2
									{
										OFFSET 3.150009 0.000000 0.000042
										CHANNELS 3 Xrotation Yrotation Zrotation
										JOINT LeftHandRing3
										{
											OFFSET 2.949989 -0.000015 0.000040
											CHANNELS 3 Xrotation Yrotation Zrotation
											JOINT LeftHandRing4
											{
												OFFSET 2.644318 -0.000015 0.000056
												CHANNELS 6 Xposition Yposition Zposition Xrotation Yrotation Zrotation
												End Site
												{
													OFFSET 2.644318 0.000000 0.000120
												}
											}
										}
									}
								}
								JOINT LeftHandPinky1
								{
									OFFSET 8.077782 -0.486877 -3.806258
									CHANNELS 6 Xposition Yposition Zposition Xrotation Yrotation Zrotation
									JOINT LeftHandPinky2
									{
										OFFSET 3.599960 0.000031 0.014726
										CHANNELS 3 Xrotation Yrotation Zrotation
										JOINT LeftHandPinky3
										{
											OFFSET 2.099998 0.000031 0.007705
											CHANNELS 3 Xrotation Yrotation Zrotation
											JOINT LeftHandPinky4
											{
												OFFSET 2.125504 0.000000 0.007515
												CHANNELS 3 Xrotation Yrotation Zrotation
												End Site
												{
													OFFSET 2.125511 0.000015 0.006257
												}
											}
										}
									}
								}
							}
						}
					}
				}
			}
		}
	}
	JOINT RightUpLeg
	{
		OFFSET -8.207787 -6.751663 -1.599560
		CHANNELS 6 Xposition Yposition Zposition Xrotation Yrotation Zrotation
		JOINT RightLeg
		{
			OFFSET -0.000001 -44.370129 0.345939
			CHANNELS 3 Xrotation Yrotation Zrotation
			JOINT RightFoot
			{
				OFFSET 0.000001 -44.423679 -3.043537
				CHANNELS 3 Xrotation Yrotation Zrotation
				JOINT RightToeBase
				{
					OFFSET -0.000003 -8.728673 10.710563
					CHANNELS 6 Xposition Yposition Zposition Xrotation Yrotation Zrotation
					JOINT RightToe_End
					{
						OFFSET -0.000002 -0.000676 9.278122
						CHANNELS 6 Xposition Yposition Zposition Xrotation Yrotation Zrotation
						End Site
						{
							OFFSET -0.000003 -0.000676 9.278122
						}
					}
				}
			}
		}
	}
	JOINT LeftUpLeg
	{
		OFFSET 8.207791 -6.751694 -1.599555
		CHANNELS 6 Xposition Yposition Zposition Xrotation Yrotation Zrotation
		JOINT LeftLeg
		{
			OFFSET -0.000002 -44.370033 0.346957
			CHANNELS 3 Xrotation Yrotation Zrotation
			JOINT LeftFoot
			{
				OFFSET 0.000000 -44.423672 -3.044393
				CHANNELS 3 Xrotation Yrotation Zrotation
				JOINT LeftToeBase
				{
					OFFSET -0.000003 -8.728668 10.710562
					CHANNELS 6 Xposition Yposition Zposition Xrotation Yrotation Zrotation
					JOINT LeftToe_End
					{
						OFFSET -0.000003 -0.000676 9.278135
						CHANNELS 6 Xposition Yposition Zposition Xrotation Yrotation Zrotation
						End Site
						{
							OFFSET -0.000003 -0.000677 9.278135
						}
					}
				}
			}
		}
	}
}
MOTION
Frames: 4
Frame Time: 0.033333
0.034568 101.615410 1.529683 1.021033 2.762210 -2.269222 -0.000005 10.181583 0.131521 0.189148 0.283982 0.996553 0.000000 9.893948 -1.470707 0.384981 0.692414 0.496922 0.384980 0.692417 0.496921 0.000001 16.740452 -2.049039 -0.004307 -0.455991 -1.208089 0.000000 9.617896 1.685006 2.744958 -3.027616 1.908109 0.000002 22.037369 7.501100 0.000000 0.000000 0.000000 -4.569969 11.014952 -2.160887 1.417826 7.418202 17.752864 0.623195 -19.220128 55.031073 -27.841503 0.000013 0.000007 11.687439 24.821886 10.776491 -28.328840 0.000009 0.000030 22.357364 3.434303 -7.264678 -2.464813 -1.573956 2.681847 -9.331265 -8.010299 -3.688538 -3.215192 -1.872784 1.924277 28.520816 -2.849359 -1.498936 -2.654849 -1.527961 1.512615 -0.323117 0.728913 0.173671 0.000000 0.000000 -0.000001 -9.108280 -0.517855 2.259837 -2.351264 -1.270035 39.625097 -4.719720 1.461453 67.075818 0.000000 -0.010100 -0.000000 -0.000000 -0.000001 0.000000 -9.532533 -0.000011 -0.000024 -4.806163 -0.739631 49.133106 -6.259563 1.832125 73.282780 0.000000 -0.036905 -0.000002 -0.000000 0.000001 0.000002 -9.103605 -0.043053 -1.865132 -3.158087 3.181278 48.238320 -2.895644 6.419612 80.688112 -0.000002 -0.012901 0.000002 0.000002 -0.000000 0.000002 -8.076694 -0.486704 -3.806278 -3.233831 6.495862 44.660585 -3.349242 10.340932 87.446844 0.000004 -0.056899 0.000001 0.000002 -0.000002 -0.000000 4.570453 11.014742 -2.160858 0.546339 -14.779640 -16.719029 -6.085783 6.471373 -50.651245 18.149185 -31.939071 -5.078708 28.328842 -0.000064 0.000021 19.399826 -9.017142 14.005279 2.466122 -1.576202 2.681737 -3.986588 10.036729 -7.745856 3.217806 -1.872072 1.916487 1.964544 5.837646 1.992751 2.656023 -1.528830 1.514505 -0.280430 -0.641571 -0.159355 2.020891 -1.154081 1.115137 0.000001 0.000001 -0.000004 9.109293 -0.518040 2.259873 -1.503236 -3.818176 -43.148877 -5.655663 -4.112077 -82.310152 -0.000003 -0.007599 -0.000001 -0.000001 -0.000003 0.000003 9.533401 -0.000003 0.000047 -7.912234 -5.581961 -63.605638 -7.591258 -5.249801 -102.716421 0.000003 0.002403 -0.000004 -0.000003 0.000002 0.000001 9.104504 -0.043040 -1.865074 -11.486361 3.391947 -64.339931 -4.455732 -4.256093 -105.407051 0.000000 -0.000003 -0.000001 2.644316 0.000026 0.000061 0.000001 -0.000002 -0.000002 8.077796 -0.486890 -3.806255 -14.803115 7.803726 -73.879943 -1.568168 -6.462421 -96.155014 -0.000001 -0.007687 0.000003 -0.000000 -0.000001 -0.000004 -8.207787 -6.751673 -1.599561 -12.639443 -8.989605 3.306476 21.971383 7.834051 -0.053790 -9.620873 0.552396 -4.293587 -0.000004 -8.728670 10.710562 -4.894235 -0.667438 0.583829 -0.000002 -0.000676 9.278120 0.000001 -0.000000 -0.000000 8.207791 -6.751703 -1.599557 -26.110399 5.523626 7.233900 63.670771 -0.874792 0.773159 -0.917328 0.395306 -1.245710 -0.000005 -8.728671 10.710564 -3.324773 -1.820849 0.843271 -0.000004 -0.000677 9.278139 0.000005 0.000001 0.000000 
-0.113179 102.221527 1.312540 1.020889 1.384380 -2.251692 -0.000004 10.181590 0.131522 0.204501 0.651904 0.804882 -0.000000 9.893958 -1.470712 0.424972 1.339542 0.149553 0.424968 1.339542 0.149554 0.000001 16.740446 -2.049035 0.538286 -0.617461 -0.463844 0.000001 9.617871 1.685008 2.304962 -2.944595 1.551870 0.000002 22.037354 7.501097 0.000000 -0.000000 0.000000 -4.569968 11.014925 -2.160886 1.329093 8.177446 16.988716 -2.254554 -21.648349 54.355366 -27.841497 0.000000 0.000005 8.183840 34.562994 13.014607 -28.328831 0.000010 0.000032 25.065584 -2.461060 -4.439916 -2.464812 -1.573961 2.681854 -9.167106 -7.491889 -2.755525 -3.215194 -1.872779 1.924278 27.551561 -2.940761 -1.373561 -2.654846 -1.527959 1.512605 -0.323120 0.728914 0.173674 -0.000001 0.000002 -0.000001 -9.108265 -0.517855 2.259837 -2.435980 -1.228626 41.440493 -4.812862 1.497703 68.211542 -0.000000 -0.010100 -0.000000 0.000000 0.000000 -0.000000 -9.532537 -0.000018 -0.000021 -4.943831 -0.628577 50.588568 -6.348526 1.857438 74.322738 0.000002 -0.036907 -0.000002 -0.000001 -0.000001 0.000001 -9.103568 -0.043054 -1.865131 -3.297742 3.316173 49.506027 -3.002851 6.444976 81.906099 -0.000001 -0.012898 -0.000003 0.000001 -0.000002 -0.000002 -8.076680 -0.486703 -3.806277 -3.408254 6.688569 45.844745 -3.442972 10.356979 88.774639 0.000002 -0.056902 -0.000001 -0.000004 0.000001 0.000000 4.570452 11.014741 -2.160856 0.856520 -13.559920 -15.861255 -3.241585 10.243573 -53.403777 17.218007 -30.409665 -4.518551 28.328844 -0.000070 0.000018 21.522969 -9.877960 13.347185 2.466126 -1.576200 2.681727 -3.986589 10.036725 -7.745858 3.217802 -1.872056 1.916485 1.964547 5.837647 1.992750 2.656001 -1.528815 1.514509 -0.280425 -0.641569 -0.159352 2.020900 -1.154069 1.115128 0.000001 0.000002 -0.000007 9.109294 -0.518045 2.259861 -1.449076 -3.969610 -41.606613 -5.291922 -4.052834 -79.269598 0.000004 -0.007598 -0.000002 -0.000002 0.000001 -0.000001 9.533408 0.000002 0.000034 -7.824362 -5.735585 -62.086857 -7.268484 -5.313519 -99.667370 0.000002 0.002400 -0.000001 0.000003 -0.000000 -0.000002 9.104523 -0.043040 -1.865080 -11.361847 3.227869 -62.846565 -4.273432 -4.300798 -102.362215 -0.000001 0.000001 0.000003 2.644316 -0.000000 0.000058 -0.000002 -0.000002 0.000001 8.077801 -0.486886 -3.806265 -14.669056 7.636495 -72.400504 -1.502134 -6.456558 -93.111331 0.000002 -0.007692 0.000003 -0.000000 0.000000 0.000001 -8.207786 -6.751662 -1.599561 -7.889313 -9.592942 3.640426 19.812651 8.792749 0.105847 -9.623178 0.800749 -5.145263 -0.000004 -8.728669 10.710563 -5.177673 -0.680276 0.440041 -0.000002 -0.000676 9.278122 -0.000000 0.000000 -0.000000 8.207793 -6.751689 -1.599558 -29.814882 5.379191 6.831196 56.450363 1.169294 -0.027460 -3.209462 0.403424 -0.746533 -0.000003 -8.728667 10.710561 -4.435104 -0.339148 -0.442852 -0.000003 -0.000678 9.278139 0.000001 -0.000000 0.000000 
-0.221091 102.269051 1.010352 0.893703 0.224166 -2.393077 -0.000005 10.181588 0.131521 0.312988 0.968285 0.628074 0.000000 9.893961 -1.470712 0.648132 1.900070 -0.043698 0.648130 1.900070 -0.043698 0.000001 16.740437 -2.049036 0.599267 -0.851608 0.519380 0.000001 9.617862 1.685011 2.132330 -2.709236 0.881473 0.000002 22.037369 7.501100 -0.000000 0.000000 -0.000000 -4.569970 11.014956 -2.160886 1.346584 8.602126 15.802401 -6.331208 -19.146449 53.324844 -27.841530 -0.000000 0.000001 6.146180 39.136076 14.659756 -28.328833 -0.000003 0.000036 24.505582 -6.748819 -3.757725 -2.464816 -1.573955 2.681854 -9.011233 -6.771780 -1.711267 -3.215194 -1.872758 1.924281 26.930553 -2.499054 -1.660204 -2.654852 -1.527956 1.512612 -0.323120 0.728914 0.173679 -0.000005 -0.000001 -0.000002 -9.108294 -0.517861 2.259841 -2.505175 -1.167764 42.786207 -4.917254 1.538028 69.341843 0.000000 -0.010100 -0.000000 0.000002 -0.000001 0.000000 -9.532526 -0.000005 -0.000020 -5.032762 -0.564517 51.854236 -6.443937 1.883730 75.416715 0.000004 -0.036901 -0.000005 0.000004 0.000000 0.000001 -9.103605 -0.043060 -1.865131 -3.402012 3.429310 50.662443 -3.107767 6.467551 83.105008 -0.000001 -0.012898 -0.000000 -0.000002 0.000001 -0.000003 -8.076682 -0.486703 -3.806276 -3.507670 6.797155 46.943491 -3.542150 10.371972 90.203549 0.000005 -0.056903 -0.000000 0.000001 -0.000004 0.000001 4.570452 11.014725 -2.160855 0.947309 -13.021938 -15.993511 0.857710 13.070261 -54.488299 18.028269 -30.983582 -3.936401 28.328833 -0.000045 0.000024 20.263269 -9.661310 13.253431 2.466130 -1.576217 2.681728 -3.986582 10.036728 -7.745856 3.217791 -1.872061 1.916484 1.964547 5.837644 1.992751 2.656018 -1.528811 1.514501 -0.280432 -0.641564 -0.159359 2.020895 -1.154081 1.115137 -0.000003 -0.000002 -0.000006 9.109294 -0.518049 2.259867 -1.374135 -4.108870 -39.822014 -4.897081 -3.965816 -75.933808 0.000001 -0.007597 -0.000002 -0.000000 -0.000002 0.000000 9.533407 0.000010 0.000047 -7.710903 -5.881685 -60.325412 -6.911844 -5.368459 -96.320912 -0.000001 0.002407 -0.000001 0.000000 0.000002 0.000002 9.104507 -0.043034 -1.865073 -11.217666 3.068571 -61.113924 -4.069872 -4.334491 -99.020579 0.000001 0.000001 -0.000002 2.644320 0.000017 0.000058 -0.000001 -0.000002 -0.000001 8.077784 -0.486882 -3.806261 -14.507493 7.474327 -70.685266 -1.430120 -6.446110 -89.771287 0.000001 -0.007683 0.000006 -0.000000 -0.000005 -0.000001 -8.207789 -6.751670 -1.599561 -3.612516 -10.179394 3.670175 18.629956 9.946670 0.550183 -9.975338 0.976220 -5.560091 -0.000004 -8.728670 10.710563 -5.313612 -0.786199 0.458252 -0.000002 -0.000676 9.278120 -0.000000 -0.000000 -0.000000 8.207790 -6.751691 -1.599553 -31.960730 4.732637 6.330182 46.659761 3.582228 -0.392277 -4.945214 0.338680 -0.005040 -0.000004 -8.728669 10.710563 -5.570342 3.738009 -3.585419 -0.000002 -0.000677 9.278133 0.000003 0.000001 -0.000001 
-0.261295 101.871796 0.902342 0.688422 -0.599528 -2.451453 -0.000004 10.181597 0.131521 0.367949 1.205334 0.461219 0.000001 9.893956 -1.470711 0.759301 2.335100 -0.138337 0.759301 2.335100 -0.138335 0.000001 16.740427 -2.049035 1.550746 -0.994232 1.204762 0.000001 9.617884 1.685006 1.534171 -2.506629 0.416133 0.000002 22.037338 7.501101 0.000000 -0.000000 -0.000000 -4.569970 11.014938 -2.160886 1.352933 9.056034 14.790554 -10.363321 -15.232172 52.256234 -27.841536 -0.000001 0.000003 4.926714 41.212689 14.620710 -28.328831 0.000016 0.000031 23.512269 -9.432607 -4.146676 -2.464817 -1.573949 2.681849 -8.860407 -5.953627 -0.621256 -3.215201 -1.872767 1.924287 26.378344 -2.366536 -1.705406 -2.654842 -1.527956 1.512608 -0.323120 0.728911 0.173678 -0.000004 -0.000003 0.000001 -9.108278 -0.517854 2.259829 -2.539455 -1.174867 44.206805 -5.032780 1.581771 70.461823 -0.000002 -0.010097 -0.000001 -0.000001 -0.000004 -0.000001 -9.532526 -0.000000 -0.000030 -5.098730 -0.522522 53.063975 -6.541659 1.910359 76.510044 0.000002 -0.036900 -0.000003 0.000002 0.000002 -0.000001 -9.103604 -0.043043 -1.865137 -3.504983 3.529369 51.861500 -3.203703 6.476618 84.240145 -0.000001 -0.012903 -0.000001 -0.000003 0.000005 -0.000002 -8.076690 -0.486698 -3.806283 -3.599315 6.957680 47.901011 -3.632894 10.371594 91.437757 0.000003 -0.056899 0.000001 0.000003 0.000000 -0.000001 4.570449 11.014725 -2.160853 1.147199 -12.106824 -15.628704 4.295001 14.869139 -56.488147 19.004177 -29.753745 -3.748027 28.328854 -0.000072 0.000020 19.884928 -10.217872 13.411518 2.466122 -1.576201 2.681736 -3.986590 10.036724 -7.745860 3.217804 -1.872055 1.916494 1.964543 5.837646 1.992749 2.656025 -1.528813 1.514504 -0.280426 -0.641572 -0.159356 2.020884 -1.154065 1.115131 -0.000002 0.000000 -0.000007 9.109290 -0.518048 2.259870 -1.282896 -4.242869 -37.952226 -4.496085 -3.852250 -72.496031 0.000000 -0.007598 0.000001 0.000003 -0.000001 -0.000000 9.533401 0.000011 0.000046 -7.580271 -6.023167 -58.478550 -6.540787 -5.398499 -92.870492 0.000001 0.002401 -0.000005 0.000000 0.000003 0.000003 9.104527 -0.043045 -1.865077 -11.057729 2.915553 -59.298446 -3.859142 -4.361057 -95.575445 -0.000001 -0.000000 -0.000001 2.644309 0.000016 0.000054 0.000001 -0.000002 0.000001 8.077792 -0.486889 -3.806262 -14.327339 7.318740 -68.889377 -1.356680 -6.431013 -86.328223 -0.000001 -0.007694 0.000003 0.000001 0.000000 -0.000001 -8.207788 -6.751655 -1.599560 0.719179 -10.972802 3.229793 17.716179 11.381023 1.298832 -10.750653 1.192366 -6.061243 -0.000004 -8.728668 10.710564 -7.040278 -0.992953 0.476486 -0.000002 -0.000676 9.278122 -0.000000 0.000000 -0.000000 8.207792 -6.751688 -1.599557 -33.345936 4.234076 5.838844 36.048219 4.871109 -0.426081 -5.157635 0.247969 1.222904 -0.000003 -8.728668 10.710563 -4.983603 1.302146 -1.733414 -0.000001 -0.000677 9.278141 0.000003 -0.000000 -0.000000 
